<svg xmlns="http://www.w3.org/2000/svg" version="1.1" xmlns:xlink="http://www.w3.org/1999/xlink" width="1000" height="1000"><g clip-path="url(#SvgjsClipPath1277)"><rect width="1000" height="1000" fill="#ffffff"></rect><g transform="matrix(0.45,0,0,0.45,50,50)"><svg xmlns="http://www.w3.org/2000/svg" version="1.1" xmlns:xlink="http://www.w3.org/1999/xlink" width="2000" height="2000"><svg width="2000" height="2000" viewBox="0 0 2000 2000" fill="none" xmlns="http://www.w3.org/2000/svg">
<path d="M241 655.051C250.232 655.051 258.907 654.606 267.472 655.273C270.364 655.495 273.923 657.831 275.814 660.389C345.107 753.697 414.178 847.116 483.361 940.535C568.115 1055.08 652.869 1169.63 737.734 1284.07C738.846 1285.52 739.958 1286.85 742.183 1289.74V655.718H774.327V1345.46C764.539 1345.46 754.751 1345.91 745.075 1345.13C742.628 1344.91 739.958 1341.46 738.067 1339.01C668.329 1244.93 598.702 1150.84 528.963 1056.64C445.433 943.76 361.902 830.99 278.372 718.108C276.926 716.218 275.48 714.438 272.366 710.546V1345.02H241.111V655.051H241Z" fill="black"></path>
<path d="M1718.4 686.961H1225.56V655.599H1759C1757.89 670.501 1761.56 684.514 1750.32 698.749C1590.38 901.046 1431.22 1103.9 1271.83 1306.64C1270.39 1308.42 1269.05 1310.31 1266.6 1313.87H1758.55V1344.9H1225.12C1225.12 1335 1224.78 1325.21 1225.34 1315.54C1225.45 1312.98 1227.79 1310.2 1229.57 1307.98C1390.18 1104.01 1550.9 900.045 1711.62 695.969C1713.4 693.634 1715.18 691.298 1718.4 686.961Z" fill="black"></path>
<path d="M996.088 655.367H1025.79V1344.89H996.088V655.367Z" fill="#009C4B"></path>
</svg></svg></g></g><defs><clipPath id="SvgjsClipPath1277"><rect width="1000" height="1000" x="0" y="0" rx="350" ry="350"></rect></clipPath></defs></svg>