<svg width="19" height="22" viewBox="0 0 19 22" fill="none" xmlns="http://www.w3.org/2000/svg">
<path fill-rule="evenodd" clip-rule="evenodd" d="M11.1836 0.52689C10.0616 0.491037 8.93867 0.491037 7.81662 0.52689C6.21211 0.577445 5.00012 1.91379 5.00012 3.47752V3.70429C4.05056 3.7914 3.1037 3.9063 2.16076 4.04883C1.81291 4.10071 1.46729 4.15663 1.12189 4.21656C0.713778 4.28738 0.440347 4.67564 0.511166 5.08375C0.581986 5.49187 0.970239 5.7653 1.37835 5.69448C1.44781 5.68243 1.51725 5.67054 1.58671 5.65883L2.59233 18.731C2.65045 19.4847 2.99092 20.1887 3.54565 20.7022C4.10032 21.2156 4.82833 21.5007 5.58412 21.5005H13.4159C14.1717 21.5007 14.8999 21.2156 15.4546 20.7022C16.0093 20.1887 16.3498 19.4848 16.4079 18.7312L17.4135 5.65981C17.483 5.67154 17.5524 5.68343 17.6219 5.69548C18.03 5.7663 18.4183 5.49287 18.4891 5.08475C18.5599 4.67664 18.2865 4.28838 17.8784 4.21756C17.5327 4.15759 17.1875 4.10175 16.8409 4.04904C15.8977 3.90645 14.9499 3.79142 14.0001 3.70429V3.47752C14.0001 1.91257 12.7879 0.577438 11.1836 0.52689ZM13.1923 5.14129C14.1064 5.21206 15.0182 5.30935 15.9265 5.43303L14.9123 18.6159C14.8833 18.9927 14.7131 19.3446 14.4357 19.6014C14.1583 19.8581 13.7943 20.0006 13.4163 20.0005H5.58412C5.20618 20.0006 4.84192 19.8581 4.56456 19.6014C4.28723 19.3447 4.117 18.9928 4.08791 18.616L3.07377 5.43303C3.98208 5.30935 4.89385 5.21206 5.80791 5.14129C8.26566 4.95135 10.7346 4.95135 13.1923 5.14129ZM6.50012 3.58998C8.49828 3.46845 10.502 3.46845 12.5001 3.58998V3.47752C12.5001 2.68262 11.8921 2.04984 11.1366 2.02615C10.0462 1.9913 8.9545 1.99129 7.86408 2.02614C7.10882 2.04982 6.50012 2.6834 6.50012 3.47752V3.58998Z" fill="#F04438"/>
<path fill-rule="evenodd" clip-rule="evenodd" d="M7.50957 7.97171C7.49366 7.5578 7.14522 7.23516 6.73131 7.25107C6.3174 7.26699 5.99476 7.61543 6.01068 8.02933L6.35668 17.0293C6.37259 17.4432 6.72103 17.7659 7.13493 17.75C7.54884 17.7341 7.87148 17.3856 7.85557 16.9717L7.50957 7.97171ZM12.9896 8.02933C13.0055 7.61543 12.6828 7.26699 12.2689 7.25107C11.855 7.23516 11.5066 7.5578 11.4907 7.97171L11.1447 16.9717C11.1288 17.3856 11.4514 17.7341 11.8653 17.75C12.2792 17.7659 12.6277 17.4432 12.6436 17.0293L12.9896 8.02933Z" fill="#F04438"/>
</svg>
