<svg width="16" height="16" viewBox="0 0 16 16" fill="none" xmlns="http://www.w3.org/2000/svg">
<path fill-rule="evenodd" clip-rule="evenodd" d="M3.52515 4.42511C2.74139 5.4049 2.27273 6.64772 2.27273 8C2.27273 11.1631 4.83691 13.7273 8 13.7273C9.35228 13.7273 10.5951 13.2586 11.5749 12.4748L3.52515 4.42511ZM4.42511 3.52515L12.4748 11.5749C13.2586 10.5951 13.7273 9.35228 13.7273 8C13.7273 4.83691 11.1631 2.27273 8 2.27273C6.64772 2.27273 5.4049 2.74139 4.42511 3.52515ZM1 8C1 4.13401 4.13401 1 8 1C11.866 1 15 4.13401 15 8C15 11.866 11.866 15 8 15C4.13401 15 1 11.866 1 8Z" fill="#F04438" stroke="#F04438" stroke-width="0.5" stroke-linecap="round" stroke-linejoin="round"/>
</svg>
