<svg width="16" height="16" viewBox="0 0 16 16" fill="none" xmlns="http://www.w3.org/2000/svg">
<path fill-rule="evenodd" clip-rule="evenodd" d="M8.25 15.5C9.23491 15.5 10.2102 15.306 11.1201 14.9291C12.0301 14.5522 12.8569 13.9997 13.5533 13.3033C14.2497 12.6069 14.8022 11.7801 15.1791 10.8701C15.556 9.96018 15.75 8.98491 15.75 8C15.75 7.01509 15.556 6.03982 15.1791 5.12987C14.8022 4.21993 14.2497 3.39314 13.5533 2.6967C12.8569 2.00026 12.0301 1.44781 11.1201 1.0709C10.2102 0.693993 9.23491 0.5 8.25 0.5C6.26088 0.5 4.35322 1.29018 2.9467 2.6967C1.54018 4.10322 0.75 6.01088 0.75 8C0.75 9.98912 1.54018 11.8968 2.9467 13.3033C4.35322 14.7098 6.26088 15.5 8.25 15.5ZM8.05667 11.0333L12.2233 6.03333L10.9433 4.96667L7.36 9.26583L5.50583 7.41083L4.3275 8.58917L6.8275 11.0892L7.4725 11.7342L8.05667 11.0333Z" fill="#3B2E8E"/>
</svg>
