<svg width="15" height="15" viewBox="0 0 15 15" fill="none" xmlns="http://www.w3.org/2000/svg">
<path fill-rule="evenodd" clip-rule="evenodd" d="M7.5 14.5C11.366 14.5 14.5 11.366 14.5 7.5C14.5 3.63401 11.366 0.5 7.5 0.5C3.63401 0.5 0.5 3.63401 0.5 7.5C0.5 11.366 3.63401 14.5 7.5 14.5ZM11.3435 5.70859C11.5967 5.38082 11.5363 4.90981 11.2086 4.65654C10.8808 4.40327 10.4098 4.46365 10.1565 4.79141L6.45615 9.58014L4.80747 7.74828C4.53038 7.44039 4.05616 7.41543 3.74828 7.69253C3.44039 7.96962 3.41544 8.44384 3.69253 8.75172L5.94253 11.2517C6.09132 11.417 6.30582 11.5078 6.52809 11.4995C6.75036 11.4911 6.95746 11.3846 7.09346 11.2086L11.3435 5.70859Z" fill="#66C61C"/>
</svg>
