<svg width="18" height="23" viewBox="0 0 18 23" fill="none" xmlns="http://www.w3.org/2000/svg">
<path fill-rule="evenodd" clip-rule="evenodd" d="M5.7587 0.5L11 0.500001C11.2652 0.500001 11.5196 0.605358 11.7071 0.792894L17.7071 6.79289C17.8946 6.98043 18 7.23478 18 7.5V16.7413C18 17.5463 18 18.2106 17.9558 18.7518C17.9099 19.3139 17.8113 19.8306 17.564 20.316C17.1805 21.0686 16.5686 21.6805 15.816 22.064C15.3306 22.3113 14.8139 22.4099 14.2518 22.4558C13.7106 22.5 13.0463 22.5 12.2413 22.5H5.75868C4.95372 22.5 4.28936 22.5 3.74817 22.4558C3.18608 22.4099 2.66937 22.3113 2.18404 22.064C1.43139 21.6805 0.819468 21.0686 0.435975 20.316C0.188684 19.8306 0.0901197 19.3139 0.0441945 18.7518C-2.28137e-05 18.2106 -1.23241e-05 17.5463 4.31292e-07 16.7413V6.2587C-1.23241e-05 5.45373 -2.28137e-05 4.78937 0.0441945 4.24817C0.0901197 3.68608 0.188684 3.16937 0.435975 2.68404C0.819468 1.93139 1.43139 1.31947 2.18404 0.935975C2.66937 0.688684 3.18608 0.59012 3.74817 0.544195C4.28937 0.499977 4.95373 0.499988 5.7587 0.5ZM3.91104 2.53755C3.47262 2.57337 3.24842 2.6383 3.09202 2.71799C2.7157 2.90973 2.40973 3.2157 2.21799 3.59202C2.1383 3.74842 2.07337 3.97262 2.03755 4.41104C2.00078 4.86113 2 5.44342 2 6.3V16.7C2 17.5566 2.00078 18.1389 2.03755 18.589C2.07337 19.0274 2.1383 19.2516 2.21799 19.408C2.40973 19.7843 2.7157 20.0903 3.09202 20.282C3.24842 20.3617 3.47262 20.4266 3.91104 20.4624C4.36113 20.4992 4.94342 20.5 5.8 20.5H12.2C13.0566 20.5 13.6389 20.4992 14.089 20.4624C14.5274 20.4266 14.7516 20.3617 14.908 20.282C15.2843 20.0903 15.5903 19.7843 15.782 19.408C15.8617 19.2516 15.9266 19.0274 15.9624 18.589C15.9992 18.1389 16 17.5566 16 16.7V8.50007L12.5681 8.50007C12.3157 8.5001 12.0699 8.50013 11.8618 8.48313C11.6332 8.46445 11.3634 8.42038 11.092 8.28208C10.7157 8.09034 10.4097 7.78438 10.218 7.40805C10.0797 7.13663 10.0356 6.8669 10.0169 6.6383C9.99994 6.43014 9.99997 6.18434 10 5.93195L10 2.5H5.8C4.94342 2.5 4.36113 2.50078 3.91104 2.53755ZM12 3.91421L14.5859 6.50007H12.6C12.3035 6.50007 12.1412 6.49929 12.0246 6.48977C12.02 6.48939 12.0156 6.48901 12.0114 6.48862C12.0111 6.48447 12.0107 6.48008 12.0103 6.47544C12.0008 6.35885 12 6.1966 12 5.90007V3.91421ZM4 8.5C4 7.94772 4.44772 7.5 5 7.5H7C7.55229 7.5 8 7.94772 8 8.5C8 9.05229 7.55229 9.5 7 9.5H5C4.44772 9.5 4 9.05229 4 8.5ZM4 12.5C4 11.9477 4.44772 11.5 5 11.5H13C13.5523 11.5 14 11.9477 14 12.5C14 13.0523 13.5523 13.5 13 13.5H5C4.44772 13.5 4 13.0523 4 12.5ZM4 16.5C4 15.9477 4.44772 15.5 5 15.5H13C13.5523 15.5 14 15.9477 14 16.5C14 17.0523 13.5523 17.5 13 17.5H5C4.44772 17.5 4 17.0523 4 16.5Z" fill="#3A4558"/>
</svg>
