<svg width="16" height="16" viewBox="0 0 16 16" fill="none" xmlns="http://www.w3.org/2000/svg">
<path fill-rule="evenodd" clip-rule="evenodd" d="M12.146 0.661234C13.0277 -0.220413 14.4571 -0.220411 15.3388 0.661236C16.2204 1.54288 16.2204 2.97232 15.3388 3.85397L8.42218 10.7705C8.40787 10.7849 8.39368 10.7991 8.37961 10.8132C8.1717 11.0215 7.98839 11.2051 7.7674 11.3405C7.57326 11.4595 7.3616 11.5472 7.1402 11.6003C6.88817 11.6608 6.62869 11.6606 6.33439 11.6603C6.31447 11.6603 6.29439 11.6603 6.27414 11.6603H5.06297C4.66351 11.6603 4.33969 11.3365 4.33969 10.937V9.72586C4.33969 9.70561 4.33967 9.68553 4.33965 9.66561C4.33938 9.37131 4.33913 9.11183 4.39964 8.85981C4.45279 8.6384 4.54047 8.42674 4.65944 8.2326C4.79486 8.01161 4.97851 7.8283 5.18681 7.62039C5.20091 7.60632 5.21512 7.59213 5.22944 7.57782L12.146 0.661234ZM14.3159 1.68411C13.9992 1.36739 13.4856 1.36739 13.1689 1.68411L6.25232 8.60069C5.97778 8.87523 5.92716 8.93242 5.89284 8.98843C5.85318 9.05315 5.82396 9.1237 5.80624 9.1975C5.7909 9.26138 5.78625 9.33762 5.78625 9.72586V10.2137H6.27414C6.66238 10.2137 6.73862 10.2091 6.8025 10.1937C6.8763 10.176 6.94686 10.1468 7.01157 10.1071C7.06758 10.0728 7.12478 10.0222 7.39931 9.74767L14.3159 2.83109C14.6326 2.51436 14.6326 2.00084 14.3159 1.68411ZM4.16518 1.53432L7.23284 1.53432C7.6323 1.53432 7.95613 1.85814 7.95613 2.2576C7.95613 2.65706 7.6323 2.98089 7.23284 2.98089H4.19505C3.5755 2.98089 3.15433 2.98145 2.82879 3.00805C2.51169 3.03395 2.34953 3.08091 2.23641 3.13855C1.96422 3.27724 1.74292 3.49854 1.60424 3.77073C1.5466 3.88385 1.49964 4.04601 1.47373 4.36311C1.44713 4.68865 1.44657 5.10982 1.44657 5.72937V11.805C1.44657 12.4245 1.44713 12.8457 1.47373 13.1712C1.49964 13.4883 1.5466 13.6505 1.60424 13.7636C1.74292 14.0358 1.96422 14.2571 2.23641 14.3958C2.34953 14.4534 2.51169 14.5004 2.82879 14.5263C3.15433 14.5529 3.5755 14.5534 4.19505 14.5534H10.2706C10.8902 14.5534 11.3113 14.5529 11.6369 14.5263C11.954 14.5004 12.1162 14.4534 12.2293 14.3958C12.5015 14.2571 12.7228 14.0358 12.8614 13.7636C12.9191 13.6505 12.966 13.4883 12.992 13.1712C13.0186 12.8457 13.0191 12.4245 13.0191 11.805V8.76716C13.0191 8.3677 13.3429 8.04388 13.7424 8.04388C14.1419 8.04388 14.4657 8.3677 14.4657 8.76716V11.8348C14.4657 12.4171 14.4657 12.8976 14.4337 13.289C14.4005 13.6956 14.3292 14.0693 14.1503 14.4203C13.873 14.9647 13.4304 15.4073 12.886 15.6847C12.535 15.8635 12.1612 15.9348 11.7547 15.968C11.3633 16 10.8827 16 10.3005 16H4.16516C3.58295 16 3.10243 16 2.711 15.968C2.30444 15.9348 1.93072 15.8635 1.57968 15.6847C1.0353 15.4073 0.592708 14.9647 0.315334 14.4203C0.136472 14.0693 0.0651822 13.6956 0.0319652 13.289C-1.65008e-05 12.8976 -8.91383e-06 12.417 3.11946e-07 11.8348V5.69949C-8.91383e-06 5.11727 -1.65008e-05 4.63675 0.0319652 4.24531C0.0651822 3.83876 0.136472 3.46503 0.315334 3.114C0.592708 2.56962 1.0353 2.12703 1.57968 1.84965C1.93072 1.67079 2.30444 1.5995 2.711 1.56628C3.10243 1.5343 3.58296 1.53431 4.16518 1.53432Z" fill="#3A4558"/>
</svg>
