<svg width="22" height="16" viewBox="0 0 22 16" fill="none" xmlns="http://www.w3.org/2000/svg">
<path fill-rule="evenodd" clip-rule="evenodd" d="M5.51395 4.24291C4.00766 5.50007 2.95356 6.97738 2.4209 7.8208C2.38555 7.87676 2.36083 7.91596 2.34017 7.94998C2.32654 7.97243 2.31754 7.98796 2.31153 7.99879C2.31152 7.99919 2.31152 7.99959 2.31152 8C2.31152 8.00041 2.31152 8.00081 2.31153 8.00121C2.31754 8.01204 2.32654 8.02757 2.34017 8.05002C2.36083 8.08404 2.38555 8.12324 2.4209 8.1792C2.95356 9.02262 4.00766 10.4999 5.51395 11.7571C7.01789 13.0123 8.91235 14 11.1557 14C13.399 14 15.2935 13.0123 16.7974 11.7571C18.3037 10.4999 19.3578 9.02262 19.8905 8.1792C19.9258 8.12324 19.9505 8.08404 19.9712 8.05002C19.9848 8.02757 19.9938 8.01204 19.9998 8.00121C19.9998 8.00081 19.9998 8.0004 19.9998 8C19.9998 7.9996 19.9998 7.99919 19.9998 7.99879C19.9938 7.98796 19.9848 7.97243 19.9712 7.94998C19.9505 7.91596 19.9258 7.87676 19.8905 7.8208C19.3578 6.97738 18.3037 5.50007 16.7974 4.24291C15.2935 2.9877 13.399 2 11.1557 2C8.91234 2 7.01789 2.9877 5.51395 4.24291ZM4.23242 2.70743C5.96102 1.26472 8.294 0 11.1557 0C14.0173 0 16.3503 1.26472 18.0789 2.70743C19.8052 4.14818 20.9887 5.81429 21.5815 6.75285C21.5893 6.76525 21.5973 6.77791 21.6055 6.79084C21.7232 6.97598 21.8759 7.21636 21.9531 7.55317C22.0154 7.82512 22.0154 8.17488 21.9531 8.44683C21.8759 8.78365 21.7232 9.02403 21.6055 9.20917C21.5973 9.22209 21.5893 9.23475 21.5815 9.24715C20.9887 10.1857 19.8052 11.8518 18.0789 13.2926C16.3503 14.7353 14.0173 16 11.1557 16C8.294 16 5.96102 14.7353 4.23242 13.2926C2.50617 11.8518 1.32264 10.1857 0.729895 9.24715C0.722063 9.23475 0.714022 9.2221 0.705811 9.20917C0.58819 9.02403 0.435476 8.78365 0.358274 8.44683C0.29594 8.17488 0.29594 7.82512 0.358274 7.55317C0.435476 7.21635 0.58819 6.97597 0.705811 6.79083C0.714022 6.7779 0.722063 6.76525 0.729895 6.75285C1.32264 5.81429 2.50617 4.14818 4.23242 2.70743ZM11.1557 6C10.0511 6 9.15568 6.89543 9.15568 8C9.15568 9.10457 10.0511 10 11.1557 10C12.2602 10 13.1557 9.10457 13.1557 8C13.1557 6.89543 12.2602 6 11.1557 6ZM7.15568 8C7.15568 5.79086 8.94654 4 11.1557 4C13.3648 4 15.1557 5.79086 15.1557 8C15.1557 10.2091 13.3648 12 11.1557 12C8.94654 12 7.15568 10.2091 7.15568 8Z" fill="#3A4558"/>
</svg>
