<svg width="15" height="11" viewBox="0 0 15 11" fill="none" xmlns="http://www.w3.org/2000/svg">
<path fill-rule="evenodd" clip-rule="evenodd" d="M3.59809 2.917C2.55631 3.7813 1.82727 4.79695 1.45888 5.3768C1.43443 5.41527 1.41734 5.44222 1.40305 5.46561C1.39362 5.48104 1.3874 5.49172 1.38324 5.49917C1.38323 5.49944 1.38323 5.49972 1.38323 5.5C1.38323 5.50028 1.38323 5.50056 1.38324 5.50083C1.3874 5.50828 1.39362 5.51896 1.40305 5.53439C1.41734 5.55778 1.43443 5.58473 1.45888 5.6232C1.82728 6.20305 2.55631 7.2187 3.59809 8.083C4.63824 8.94596 5.94847 9.625 7.5 9.625C9.05153 9.625 10.3618 8.94596 11.4019 8.083C12.4437 7.2187 13.1727 6.20305 13.5411 5.6232C13.5656 5.58473 13.5827 5.55778 13.597 5.53439C13.6064 5.51896 13.6126 5.50827 13.6168 5.50083C13.6168 5.50056 13.6168 5.50028 13.6168 5.5C13.6168 5.49972 13.6168 5.49944 13.6168 5.49917C13.6126 5.49173 13.6064 5.48104 13.5969 5.46561C13.5827 5.44222 13.5656 5.41527 13.5411 5.3768C13.1727 4.79695 12.4437 3.7813 11.4019 2.917C10.3618 2.05404 9.05153 1.375 7.5 1.375C5.94847 1.375 4.63824 2.05404 3.59809 2.917ZM2.71176 1.86136C3.90729 0.869495 5.52082 0 7.5 0C9.47918 0 11.0927 0.869495 12.2882 1.86136C13.4821 2.85187 14.3007 3.99732 14.7106 4.64258C14.7161 4.65111 14.7216 4.65981 14.7273 4.6687C14.8087 4.79598 14.9143 4.96125 14.9677 5.1928C15.0108 5.37977 15.0108 5.62023 14.9677 5.8072C14.9143 6.03876 14.8087 6.20402 14.7273 6.3313C14.7216 6.34019 14.7161 6.34889 14.7106 6.35742C14.3007 7.00268 13.4821 8.14813 12.2882 9.13864C11.0927 10.1305 9.47918 11 7.5 11C5.52082 11 3.90729 10.1305 2.71176 9.13864C1.51786 8.14813 0.699306 7.00268 0.289353 6.35742C0.283936 6.34889 0.278375 6.34019 0.272696 6.3313C0.191347 6.20402 0.0857274 6.03876 0.0323336 5.8072C-0.0107779 5.62023 -0.0107779 5.37977 0.0323336 5.1928C0.0857274 4.96124 0.191347 4.79598 0.272696 4.6687C0.278375 4.65981 0.283936 4.65111 0.289353 4.64258C0.699306 3.99732 1.51786 2.85187 2.71176 1.86136ZM7.5 4.125C6.73606 4.125 6.11677 4.74061 6.11677 5.5C6.11677 6.25939 6.73606 6.875 7.5 6.875C8.26394 6.875 8.88323 6.25939 8.88323 5.5C8.88323 4.74061 8.26394 4.125 7.5 4.125ZM4.73353 5.5C4.73353 3.98122 5.97212 2.75 7.5 2.75C9.02788 2.75 10.2665 3.98122 10.2665 5.5C10.2665 7.01878 9.02788 8.25 7.5 8.25C5.97212 8.25 4.73353 7.01878 4.73353 5.5Z" fill="#3A4558"/>
</svg>
