<svg width="24" height="14" viewBox="0 0 24 14" fill="none" xmlns="http://www.w3.org/2000/svg">
<path d="M18.1493 0C19.3425 0 20.3754 0.198874 21.2479 0.596624C22.1332 0.994374 22.8132 1.55892 23.2879 2.29027C23.7627 3.02161 24 3.88768 24 4.88847C24 5.87643 23.7627 6.74249 23.2879 7.48667C22.8132 8.21802 22.1332 8.78256 21.2479 9.18031C20.3754 9.56523 19.3425 9.75769 18.1493 9.75769H15.4356V13.4722H12.3177V0H18.1493ZM17.9761 7.21723C18.9127 7.21723 19.6248 7.01835 20.1124 6.6206C20.5999 6.21002 20.8437 5.63265 20.8437 4.88847C20.8437 4.13146 20.5999 3.55408 20.1124 3.15633C19.6248 2.74575 18.9127 2.54046 17.9761 2.54046H15.4356V7.21723H17.9761Z" fill="#4838AA"/>
<path d="M4.38807 13.7031C3.4771 13.7031 2.63669 13.5363 1.86686 13.2027C1.10985 12.8563 0.487564 12.3687 0 11.74L1.73213 9.66146C2.46348 10.6494 3.29747 11.1434 4.23411 11.1434C5.50434 11.1434 6.13946 10.3992 6.13946 8.91087V2.50197H1.40495V0H9.23805V8.73766C9.23805 10.3928 8.82747 11.6374 8.00631 12.4714C7.18515 13.2925 5.97907 13.7031 4.38807 13.7031Z" fill="#4838AA"/>
</svg>
