<svg width="59" height="35" viewBox="0 0 59 35" fill="none" xmlns="http://www.w3.org/2000/svg">
<g clip-path="url(#clip0_5012_1303)">
<path d="M7.63035 26.2205C7.7657 26.0701 7.88977 25.9329 8.01571 25.7919C8.58154 26.2694 9.25264 26.3727 9.95193 26.3727C16.8396 26.3727 23.7273 26.3709 30.6149 26.3784C31.412 26.3784 31.9966 26.0382 32.4139 25.3972C32.6771 24.9931 32.8989 24.5608 33.1207 24.1304C33.4986 23.3954 33.8463 22.6436 34.3295 21.9669C34.6321 21.544 34.9818 21.1737 35.416 20.8805C36.2901 20.2884 37.888 20.3091 38.6963 21.6098C39.0422 22.1681 39.2114 22.7827 39.2677 23.4274C39.3805 24.6943 39.1324 25.8953 38.5779 27.0381C38.5252 27.1471 38.4613 27.1885 38.3354 27.1904C37.5421 27.2129 36.7507 27.2092 35.9611 27.1002C34.8408 26.946 33.8445 26.525 33.0061 25.7544C32.976 25.728 32.9459 25.7017 32.9064 25.6679C32.7993 25.8051 32.6978 25.9386 32.5906 26.0701C32.0887 26.6848 31.4402 26.9723 30.6431 26.9705C23.857 26.9667 17.0708 26.9686 10.2828 26.9686H10.0704C10.0854 26.9968 10.0892 27.0156 10.1004 27.0269C11.1362 27.9629 10.9896 29.5418 10.1625 30.4026C9.63236 30.9552 8.97254 31.2785 8.25069 31.4891C7.14912 31.8086 6.0231 31.8612 4.88769 31.7748C4.1132 31.7165 3.3594 31.5586 2.6507 31.224C1.39874 30.6319 0.695689 29.6395 0.513346 28.273C0.408076 27.4892 0.466351 26.713 0.637415 25.9423C0.644934 25.9085 0.658092 25.8765 0.671251 25.8314C0.842315 25.8634 1.00774 25.8953 1.17504 25.9292C1.12993 26.26 1.07917 26.5776 1.04722 26.8972C0.983302 27.5343 1.00022 28.1678 1.19572 28.7862C1.51717 29.8068 2.22774 30.4477 3.20337 30.8218C3.92898 31.1 4.68843 31.1958 5.45916 31.2146C6.42726 31.2372 7.38785 31.1658 8.31273 30.8519C8.87479 30.662 9.39174 30.3951 9.79027 29.9403C10.2189 29.4516 10.3674 28.8839 10.217 28.2505C10.1174 27.8294 9.84666 27.5156 9.49513 27.2938C9.14173 27.072 8.76388 26.8896 8.38604 26.7092C8.11534 26.5795 7.85593 26.4404 7.62471 26.2186L7.63035 26.2205ZM33.2016 25.1341C33.8482 25.7656 34.572 26.1942 35.4235 26.3991C36.26 26.6021 37.1116 26.6209 37.9669 26.6133C38.1286 26.6133 38.1944 26.5532 38.2508 26.416C38.6098 25.5551 38.7846 24.6642 38.7433 23.7319C38.7188 23.1567 38.6136 22.6022 38.3297 22.0891C37.6511 20.8636 36.1454 20.8561 35.3916 21.6324C35.1058 21.9275 34.8201 22.2395 34.6114 22.591C34.117 23.4218 33.6715 24.2807 33.2034 25.1322L33.2016 25.1341Z" fill="black"/>
<path d="M46.9356 23.9574C47.1348 23.527 47.3021 23.1172 47.507 22.7262C47.9826 21.8184 48.5955 21.0233 49.4696 20.4632C50.6275 19.7207 51.8664 19.5835 53.1465 20.0704C54.0883 20.4275 54.6767 21.1643 55.0639 22.0684C55.3515 22.7413 55.4831 23.448 55.4906 24.1773C55.4982 24.8483 55.4906 25.5212 55.4906 26.1923C55.4906 26.2468 55.4906 26.3013 55.4906 26.3652H58.2201V19.8091H58.7653V26.961H42.6853V15.4728H43.2267V26.3633H46.3923V15.4709H46.9337V23.9574H46.9356ZM54.9323 26.3689C54.9399 26.3407 54.9455 26.3276 54.9455 26.3125C54.9455 25.6208 54.9587 24.9273 54.9417 24.2375C54.9323 23.8653 54.8929 23.4912 54.8252 23.1247C54.6842 22.3785 54.3665 21.7131 53.8026 21.1906C52.9642 20.4106 51.9566 20.2621 50.8776 20.4782C49.9301 20.6681 49.197 21.2207 48.5879 21.9462C47.6894 23.0195 47.1931 24.2732 46.9826 25.6472C46.9469 25.884 46.9337 26.1227 46.9093 26.3689H54.9323Z" fill="black"/>
<path d="M48.5372 7.02033C48.9564 6.52975 49.3624 6.05421 49.7684 5.57867C51.0975 4.02423 52.4265 2.46979 53.7593 0.919109C53.8044 0.86648 53.889 0.832647 53.9604 0.823249C54.0902 0.808212 54.2217 0.81949 54.3665 0.81949V12.4787H53.8458V1.71794C53.8345 1.71231 53.8251 1.70667 53.8138 1.70103C53.78 1.73862 53.7424 1.77433 53.7104 1.81192C52.1032 3.69342 50.4978 5.57679 48.8924 7.45828C48.7439 7.6312 48.3661 7.63496 48.2176 7.46204C46.5991 5.57679 44.9805 3.69154 43.362 1.80629C43.3319 1.77245 43.3019 1.73862 43.2436 1.67283V12.4806H42.7097V0.81949C42.8676 0.81949 43.0274 0.813851 43.1872 0.823249C43.2285 0.825129 43.2737 0.86648 43.3037 0.902193C44.5595 2.36641 45.8114 3.83439 47.0653 5.30048C47.5503 5.86813 48.0353 6.43577 48.5372 7.02033Z" fill="black"/>
<path d="M0.531982 0.819349C0.688008 0.819349 0.834634 0.811831 0.97938 0.823109C1.02826 0.826868 1.08841 0.86634 1.12037 0.909571C2.2915 2.48656 3.45887 4.06544 4.62811 5.64431C6.06054 7.58031 7.49296 9.51631 8.92727 11.4504C8.94606 11.4749 8.96486 11.4974 9.00246 11.5463V0.830627H9.54573V12.488C9.3803 12.488 9.21488 12.4955 9.05133 12.4823C9.00998 12.4786 8.96486 12.4203 8.93291 12.379C7.75426 10.7888 6.57749 9.19866 5.39884 7.60663C3.98709 5.69882 2.57535 3.79289 1.1636 1.88509C1.13916 1.85314 1.11473 1.82306 1.06209 1.75728V12.4805H0.533862V0.819349H0.531982Z" fill="black"/>
<path d="M25.5018 1.35891H17.1723V0.828857H26.1879C26.1691 1.08073 26.2311 1.31756 26.0413 1.55815C23.3381 4.97716 20.6481 8.40557 17.9543 11.8321C17.9299 11.8622 17.9073 11.8941 17.8659 11.9543H26.1804V12.4787H17.1648C17.1648 12.3114 17.1591 12.146 17.1685 11.9825C17.1704 11.9392 17.2099 11.8923 17.24 11.8547C19.9544 8.40745 22.6708 4.96024 25.3871 1.51116C25.4172 1.47168 25.4473 1.43221 25.5018 1.35891Z" fill="black"/>
<path d="M39.2489 12.4656C39.2245 12.475 39.2207 12.4768 39.2151 12.4768C38.8817 12.4906 38.6524 12.3453 38.5271 12.0408C38.2113 11.272 37.8917 10.5032 37.5815 9.7326C37.5327 9.6123 37.4725 9.56719 37.339 9.56719C35.2731 9.57095 33.2072 9.57095 31.1394 9.56719C31.0116 9.56719 30.9552 9.6123 30.9082 9.72508C30.5548 10.5935 30.1938 11.4581 29.8423 12.3265C29.7953 12.4449 29.737 12.4919 29.6111 12.4806C29.487 12.4693 29.3611 12.4787 29.2107 12.4787C29.2483 12.3791 29.2784 12.2945 29.3122 12.2137C30.8386 8.4883 32.365 4.7629 33.8858 1.03563C33.9516 0.873988 34.0306 0.8176 34.2035 0.825118C34.5043 0.840155 34.5062 0.828877 34.6152 1.0939C36.1435 4.83621 37.6699 8.57664 39.1963 12.3189C39.2151 12.3641 39.2283 12.4129 39.2471 12.4656H39.2489ZM34.2712 1.60892C34.258 1.60892 34.2449 1.60892 34.2317 1.60704C33.2147 4.08248 32.1977 6.55981 31.1751 9.05406H37.3146C36.2957 6.55793 35.2844 4.08436 34.2731 1.6108L34.2712 1.60892Z" fill="#009C4B"/>
<path d="M13.2942 0.825195H13.7961V12.4788H13.2942V0.825195Z" fill="black"/>
<path d="M58.2727 12.4787V0.830774C58.4175 0.830774 58.5622 0.827015 58.7069 0.834533C58.7314 0.834533 58.7652 0.881523 58.7727 0.911597C58.784 0.952949 58.7784 1.00182 58.7784 1.04693C58.7784 4.7836 58.7784 8.52026 58.7784 12.2569C58.7784 12.5276 58.7746 12.475 58.5603 12.4787C58.4701 12.4787 58.3799 12.4787 58.2746 12.4787H58.2727Z" fill="#009C4B"/>
<path d="M58.5116 18.3431C58.2258 18.3431 58.0002 18.1194 58.0002 17.8393C58.0002 17.5649 58.2277 17.3412 58.5022 17.3394C58.7879 17.3394 59.0135 17.5612 59.0097 17.8469C59.0078 18.1269 58.7879 18.3431 58.5097 18.3431H58.5116Z" fill="black"/>
<path d="M51.6991 18.3431C51.4227 18.3431 51.1953 18.1213 51.1934 17.8487C51.1896 17.5687 51.4209 17.3394 51.7028 17.3394C51.9942 17.3394 52.201 17.5536 52.1972 17.8525C52.1953 18.1401 51.9886 18.3431 51.6991 18.3431Z" fill="black"/>
<path d="M5.14328 34.1845C4.87071 34.1826 4.65829 33.9664 4.66017 33.6901C4.66017 33.4232 4.87071 33.2202 5.14704 33.2202C5.42526 33.2202 5.6452 33.4345 5.64144 33.7014C5.6358 33.9721 5.41586 34.1863 5.14516 34.1845H5.14328Z" fill="black"/>
<path d="M6.83334 33.7052C6.83146 33.989 6.62844 34.1901 6.34459 34.1845C6.07953 34.1807 5.85395 33.9514 5.85771 33.6882C5.86147 33.427 6.08893 33.2183 6.36902 33.2202C6.64536 33.2221 6.83522 33.4213 6.83334 33.7052Z" fill="black"/>
</g>
<defs>
<clipPath id="clip0_5012_1303">
<rect width="58.82" height="33.3707" fill="white" transform="translate(0.180176 0.814697)"/>
</clipPath>
</defs>
</svg>
