<svg width="15" height="16" viewBox="0 0 15 16" fill="none" xmlns="http://www.w3.org/2000/svg">
<path fill-rule="evenodd" clip-rule="evenodd" d="M6.87109 6.25535e-07H8.12891C8.52427 -1.23791e-05 8.86534 -2.36495e-05 9.14627 0.0222336C9.44278 0.0457253 9.73769 0.0975914 10.0215 0.237805C10.4448 0.446984 10.7891 0.780759 11.0048 1.19129C11.1494 1.46648 11.2028 1.75246 11.2271 2.03998C11.2476 2.28418 11.2498 2.57525 11.25 2.90909H14.25C14.6642 2.90909 15 3.2347 15 3.63636C15 4.03803 14.6642 4.36364 14.25 4.36364H13.5V11.8119C13.5 12.3973 13.5 12.8805 13.4669 13.2741C13.4324 13.6829 13.3585 14.0586 13.173 14.4116C12.8854 14.959 12.4265 15.404 11.862 15.6829C11.498 15.8628 11.1104 15.9345 10.6889 15.9679C10.283 16 9.78471 16 9.18099 16H5.81901C5.21529 16 4.71702 16 4.31113 15.9679C3.88956 15.9345 3.50203 15.8628 3.13803 15.6829C2.57354 15.404 2.1146 14.959 1.82698 14.4116C1.64151 14.0586 1.56759 13.6829 1.53315 13.2741C1.49998 12.8805 1.49999 12.3973 1.5 11.8119L1.5 4.36364H0.75C0.335786 4.36364 0 4.03803 0 3.63636C0 3.2347 0.335786 2.90909 0.75 2.90909H3.75002C3.75023 2.57525 3.75235 2.28418 3.77293 2.03998C3.79715 1.75246 3.85064 1.46648 3.99524 1.19129C4.21095 0.780759 4.55516 0.446984 4.97852 0.237805C5.26231 0.0975914 5.55722 0.0457253 5.85373 0.0222337C6.13466 -2.36495e-05 6.47573 -1.23791e-05 6.87109 6.25535e-07ZM3 4.36364V11.7818C3 12.4048 3.00058 12.8283 3.02816 13.1556C3.05503 13.4745 3.10372 13.6375 3.16349 13.7513C3.3073 14.025 3.53677 14.2475 3.81901 14.3869C3.93631 14.4449 4.10447 14.4921 4.43328 14.5181C4.77085 14.5449 5.20757 14.5455 5.85 14.5455H9.15C9.79243 14.5455 10.2292 14.5449 10.5667 14.5181C10.8955 14.4921 11.0637 14.4449 11.181 14.3869C11.4632 14.2475 11.6927 14.025 11.8365 13.7513C11.8963 13.6375 11.945 13.4745 11.9718 13.1556C11.9994 12.8283 12 12.4048 12 11.7818V4.36364H3ZM9.74995 2.90909H5.25005C5.25039 2.57083 5.25268 2.33962 5.26795 2.15843C5.28459 1.96085 5.31285 1.8876 5.33175 1.85164C5.40365 1.7148 5.51839 1.60354 5.65951 1.53381C5.69659 1.51549 5.77213 1.48809 5.97588 1.47195C6.18838 1.45511 6.46758 1.45455 6.9 1.45455H8.1C8.53242 1.45455 8.81162 1.45511 9.02412 1.47195C9.22787 1.48809 9.30341 1.51549 9.34049 1.53381C9.48162 1.60354 9.59635 1.7148 9.66825 1.85164C9.68715 1.8876 9.71541 1.96085 9.73205 2.15843C9.74732 2.33962 9.74961 2.57083 9.74995 2.90909ZM6 6.90909C6.41421 6.90909 6.75 7.2347 6.75 7.63636V11.2727C6.75 11.6744 6.41421 12 6 12C5.58579 12 5.25 11.6744 5.25 11.2727V7.63636C5.25 7.2347 5.58579 6.90909 6 6.90909ZM9 6.90909C9.41421 6.90909 9.75 7.2347 9.75 7.63636V11.2727C9.75 11.6744 9.41421 12 9 12C8.58579 12 8.25 11.6744 8.25 11.2727V7.63636C8.25 7.2347 8.58579 6.90909 9 6.90909Z" fill="#F04438"/>
</svg>
