<svg width="8" height="8" viewBox="0 0 8 8" fill="none" xmlns="http://www.w3.org/2000/svg">
<path fill-rule="evenodd" clip-rule="evenodd" d="M0.462738 0.462738C0.621388 0.304087 0.878612 0.304087 1.03726 0.462738L4 3.42548L6.96274 0.462738C7.12139 0.304087 7.37861 0.304087 7.53726 0.462738C7.69591 0.621388 7.69591 0.878612 7.53726 1.03726L4.57452 4L7.53726 6.96274C7.69591 7.12139 7.69591 7.37861 7.53726 7.53726C7.37861 7.69591 7.12139 7.69591 6.96274 7.53726L4 4.57452L1.03726 7.53726C0.878612 7.69591 0.621388 7.69591 0.462738 7.53726C0.304087 7.37861 0.304087 7.12139 0.462738 6.96274L3.42548 4L0.462738 1.03726C0.304087 0.878612 0.304087 0.621388 0.462738 0.462738Z" fill="#2563EB"/>
</svg>
