<svg width="9" height="10" viewBox="0 0 9 10" fill="none" xmlns="http://www.w3.org/2000/svg">
<path fill-rule="evenodd" clip-rule="evenodd" d="M0.505732 1.00472C0.637001 0.873488 0.815017 0.799767 1.00063 0.799767C1.18625 0.799767 1.36426 0.873488 1.49553 1.00472L4.50063 4.00982L7.50573 1.00472C7.5703 0.93786 7.64755 0.884533 7.73295 0.847846C7.81835 0.81116 7.91021 0.79185 8.00315 0.791042C8.0961 0.790234 8.18827 0.807945 8.2743 0.843142C8.36033 0.878339 8.43848 0.930316 8.50421 0.996041C8.56993 1.06177 8.62191 1.13992 8.65711 1.22595C8.6923 1.31198 8.71002 1.40415 8.70921 1.4971C8.7084 1.59004 8.68909 1.6819 8.6524 1.7673C8.61572 1.8527 8.56239 1.92994 8.49553 1.99452L5.49043 4.99962L8.49553 8.00472C8.62304 8.13674 8.6936 8.31356 8.692 8.4971C8.69041 8.68064 8.61679 8.8562 8.487 8.98599C8.35722 9.11578 8.18165 9.18939 7.99811 9.19099C7.81457 9.19258 7.63775 9.12203 7.50573 8.99452L4.50063 5.98942L1.49553 8.99452C1.36351 9.12203 1.18669 9.19258 1.00315 9.19099C0.819613 9.18939 0.644044 9.11578 0.514259 8.98599C0.384473 8.8562 0.310855 8.68064 0.30926 8.4971C0.307665 8.31356 0.378221 8.13674 0.505732 8.00472L3.51083 4.99962L0.505732 1.99452C0.374502 1.86325 0.300781 1.68523 0.300781 1.49962C0.300781 1.314 0.374502 1.13599 0.505732 1.00472Z" fill="white"/>
</svg>
