<svg width="13" height="13" viewBox="0 0 13 13" fill="none" xmlns="http://www.w3.org/2000/svg">
<path fill-rule="evenodd" clip-rule="evenodd" d="M0.449635 0.44964C1.04915 -0.149878 2.02116 -0.14988 2.62067 0.449636L6.14062 3.96958L9.66058 0.449636C10.2601 -0.14988 11.2321 -0.149878 11.8316 0.44964C12.4311 1.04916 12.4311 2.02117 11.8316 2.62068L8.31167 6.14062L11.8316 9.66057C12.4311 10.2601 12.4311 11.2321 11.8316 11.8316C11.2321 12.4311 10.2601 12.4311 9.66058 11.8316L6.14062 8.31167L2.62067 11.8316C2.02116 12.4311 1.04915 12.4311 0.449635 11.8316C-0.14988 11.2321 -0.149878 10.2601 0.449639 9.66057L3.96958 6.14062L0.449639 2.62068C-0.149878 2.02117 -0.14988 1.04916 0.449635 0.44964Z" fill="#7C7C7C"/>
</svg>
