<svg width="32" height="39" viewBox="0 0 32 39" fill="none" xmlns="http://www.w3.org/2000/svg">
<path fill-rule="evenodd" clip-rule="evenodd" d="M9.95635 1.25836e-07L19.75 3.64255e-07C20.0129 3.64255e-07 20.2652 0.103523 20.4523 0.288164L31.7023 11.3882C31.8928 11.5761 32 11.8325 32 12.1V29.1647C32 30.681 32 31.8809 31.92 32.8478C31.8381 33.8361 31.6675 34.6692 31.2754 35.4285C30.6384 36.662 29.6233 37.6624 28.3779 38.2885C27.613 38.6731 26.7736 38.8406 25.7748 38.9212C24.7966 39 23.5819 39 22.0438 39H9.95624C8.41812 39 7.20339 39 6.22516 38.9212C5.22639 38.8406 4.38704 38.6731 3.62214 38.2885C2.37667 37.6624 1.36157 36.662 0.72457 35.4285C0.332485 34.6692 0.161893 33.8361 0.0800474 32.8478C-1.34483e-05 31.8809 -7.36511e-06 30.681 1.45071e-07 29.1647V9.83532C-7.36511e-06 8.31903 -1.34483e-05 7.11908 0.0800474 6.15225C0.161893 5.16386 0.332485 4.33076 0.72457 3.57151C1.36157 2.338 2.37667 1.3376 3.62214 0.711465C4.38704 0.326925 5.22639 0.159363 6.22516 0.0788481C7.20341 -1.22711e-05 8.41818 -6.66909e-06 9.95635 1.25836e-07ZM6.38586 2.07238C5.50867 2.14309 4.95882 2.27799 4.52047 2.49836C3.64911 2.93642 2.94318 3.63411 2.50161 4.48919C2.2806 4.91715 2.14465 5.45473 2.07323 6.3173C2.0008 7.19193 2 8.30913 2 9.88V29.12C2 30.6909 2.0008 31.8081 2.07323 32.6827C2.14465 33.5453 2.2806 34.0828 2.50161 34.5108C2.94318 35.3659 3.64911 36.0636 4.52047 36.5016C4.95882 36.722 5.50867 36.8569 6.38586 36.9276C7.27434 36.9992 8.40857 37 10 37H22C23.5914 37 24.7257 36.9992 25.6141 36.9276C26.4913 36.8569 27.0412 36.722 27.4795 36.5016C28.3509 36.0636 29.0568 35.3659 29.4984 34.5108C29.7194 34.0828 29.8553 33.5453 29.9268 32.6827C29.9992 31.8081 30 30.6909 30 29.12V13.1001H22.7124C22.2195 13.1002 21.7914 13.1002 21.4382 13.0717C21.0647 13.0416 20.6884 12.9748 20.3246 12.7919C19.7847 12.5205 19.3433 12.0862 19.0658 11.5489C18.8781 11.1853 18.8097 10.8091 18.779 10.4377C18.75 10.0876 18.75 9.66376 18.75 9.17847V2H10C8.40857 2 7.27434 2.00076 6.38586 2.07238ZM20.75 3.39148L28.5628 11.1001H22.75C22.2087 11.1001 21.862 11.0994 21.5989 11.0782C21.347 11.0579 21.2602 11.0238 21.2229 11.005C21.0572 10.9217 20.9249 10.7901 20.8429 10.6312C20.8262 10.599 20.7925 10.5183 20.7721 10.2727C20.7508 10.015 20.75 9.6749 20.75 9.14013V3.39148ZM7.5 13.95C7.5 13.3977 7.94772 12.95 8.5 12.95H12.25C12.8023 12.95 13.25 13.3977 13.25 13.95C13.25 14.5023 12.8023 14.95 12.25 14.95H8.5C7.94772 14.95 7.5 14.5023 7.5 13.95ZM7.5 21.35C7.5 20.7977 7.94772 20.35 8.5 20.35H23.5C24.0523 20.35 24.5 20.7977 24.5 21.35C24.5 21.9023 24.0523 22.35 23.5 22.35H8.5C7.94772 22.35 7.5 21.9023 7.5 21.35ZM7.5 28.75C7.5 28.1977 7.94772 27.75 8.5 27.75H23.5C24.0523 27.75 24.5 28.1977 24.5 28.75C24.5 29.3023 24.0523 29.75 23.5 29.75H8.5C7.94772 29.75 7.5 29.3023 7.5 28.75Z" fill="#8892A6"/>
</svg>
