<svg width="15" height="18" viewBox="0 0 15 18" fill="none" xmlns="http://www.w3.org/2000/svg">
<path fill-rule="evenodd" clip-rule="evenodd" d="M9.66418 0H4.54634H4.54633C3.91083 -9.72882e-06 3.38634 -1.77585e-05 2.95908 0.0348904C2.51532 0.0711471 2.1074 0.148961 1.72424 0.34419C1.13004 0.646948 0.646948 1.13004 0.344191 1.72424C0.148961 2.1074 0.0711474 2.51532 0.0348907 2.95908C-1.7248e-05 3.38634 -9.44946e-06 3.91082 0 4.54631V4.54634V12.8221V12.8221C-9.44946e-06 13.4576 -1.72444e-05 13.9821 0.0348907 14.4093C0.0711474 14.8531 0.148961 15.261 0.344191 15.6442C0.646948 16.2384 1.13005 16.7215 1.72424 17.0242C2.10739 17.2194 2.51531 17.2973 2.95905 17.3335C3.38629 17.3684 3.91075 17.3684 4.54621 17.3684H7.49999C7.93601 17.3684 8.28947 17.0149 8.28947 16.5789C8.28947 16.1429 7.93601 15.7895 7.49999 15.7895H4.57883C3.90262 15.7895 3.44295 15.7888 3.08763 15.7598C2.74154 15.7315 2.56454 15.6803 2.44107 15.6174C2.14397 15.466 1.90242 15.2244 1.75104 14.9273C1.68813 14.8039 1.63687 14.6269 1.60859 14.2807C1.57956 13.9254 1.57895 13.4657 1.57895 12.7895V4.57894C1.57895 3.9027 1.57956 3.44299 1.60859 3.08766C1.63687 2.74154 1.68813 2.56454 1.75104 2.44107C1.90242 2.14397 2.14397 1.90242 2.44107 1.75104C2.56454 1.68813 2.74154 1.63687 3.08766 1.60859C3.44299 1.57956 3.9027 1.57895 4.57894 1.57895H9.63157C10.3078 1.57895 10.7675 1.57956 11.1229 1.60859C11.469 1.63687 11.646 1.68813 11.7694 1.75104C12.0665 1.90242 12.3081 2.14397 12.4595 2.44107C12.5224 2.56454 12.5736 2.74154 12.6019 3.08766C12.631 3.44299 12.6316 3.9027 12.6316 4.57894V9.07894C12.6316 9.51496 12.985 9.86841 13.421 9.86841C13.8571 9.86841 14.2105 9.51496 14.2105 9.07894V4.54632C14.2105 3.91083 14.2105 3.38634 14.1756 2.95908C14.1394 2.51532 14.0616 2.1074 13.8663 1.72424C13.5636 1.13004 13.0805 0.646948 12.4863 0.34419C12.1031 0.148961 11.6952 0.0711471 11.2514 0.0348904C10.8242 -1.77581e-05 10.2997 -9.72882e-06 9.66419 0H9.66418ZM3.94737 3.94737C3.51135 3.94737 3.15789 4.30083 3.15789 4.73684C3.15789 5.17285 3.51135 5.52631 3.94737 5.52631H10.2632C10.6992 5.52631 11.0526 5.17285 11.0526 4.73684C11.0526 4.30083 10.6992 3.94737 10.2632 3.94737H3.94737ZM3.94737 7.10526C3.51135 7.10526 3.15789 7.45872 3.15789 7.89473C3.15789 8.33075 3.51135 8.6842 3.94737 8.6842H8.6842C9.12022 8.6842 9.47368 8.33075 9.47368 7.89473C9.47368 7.45872 9.12022 7.10526 8.6842 7.10526H3.94737ZM3.94737 10.2632C3.51135 10.2632 3.15789 10.6166 3.15789 11.0526C3.15789 11.4886 3.51135 11.8421 3.94737 11.8421H5.52631C5.96233 11.8421 6.31578 11.4886 6.31578 11.0526C6.31578 10.6166 5.96233 10.2632 5.52631 10.2632H3.94737ZM11.0528 16.5789C11.0528 17.0149 11.4062 17.3683 11.8422 17.3683C12.2782 17.3683 12.6317 17.0149 12.6317 16.5789V13.748L13.6524 14.7687C13.9607 15.077 14.4606 15.077 14.7689 14.7687C15.0772 14.4604 15.0772 13.9605 14.7689 13.6522L12.4005 11.2838C12.0922 10.9755 11.5923 10.9755 11.284 11.2838L8.91557 13.6522C8.60726 13.9605 8.60726 14.4604 8.91557 14.7687C9.22388 15.077 9.72374 15.077 10.0321 14.7687L11.0528 13.748V16.5789Z" fill="#4838AA"/>
</svg>
