<svg width="22" height="17" viewBox="0 0 22 17" fill="none" xmlns="http://www.w3.org/2000/svg">
<path fill-rule="evenodd" clip-rule="evenodd" d="M5.51395 4.74291C4.00766 6.00007 2.95356 7.47738 2.4209 8.3208C2.38555 8.37676 2.36083 8.41596 2.34017 8.44998C2.32654 8.47243 2.31754 8.48796 2.31153 8.49879C2.31152 8.49919 2.31152 8.49959 2.31152 8.5C2.31152 8.50041 2.31152 8.50081 2.31153 8.50121C2.31754 8.51204 2.32654 8.52757 2.34017 8.55002C2.36083 8.58404 2.38555 8.62324 2.4209 8.6792C2.95356 9.52262 4.00766 10.9999 5.51395 12.2571C7.01789 13.5123 8.91235 14.5 11.1557 14.5C13.399 14.5 15.2935 13.5123 16.7974 12.2571C18.3037 10.9999 19.3578 9.52262 19.8905 8.6792C19.9258 8.62324 19.9505 8.58404 19.9712 8.55002C19.9848 8.52757 19.9938 8.51204 19.9998 8.50121C19.9998 8.50081 19.9998 8.5004 19.9998 8.5C19.9998 8.4996 19.9998 8.49919 19.9998 8.49879C19.9938 8.48796 19.9848 8.47243 19.9712 8.44998C19.9505 8.41596 19.9258 8.37676 19.8905 8.3208C19.3578 7.47738 18.3037 6.00007 16.7974 4.74291C15.2935 3.4877 13.399 2.5 11.1557 2.5C8.91234 2.5 7.01789 3.4877 5.51395 4.74291ZM4.23242 3.20743C5.96102 1.76472 8.294 0.5 11.1557 0.5C14.0173 0.5 16.3503 1.76472 18.0789 3.20743C19.8052 4.64818 20.9887 6.31429 21.5815 7.25285C21.5893 7.26525 21.5973 7.27791 21.6055 7.29084C21.7232 7.47598 21.8759 7.71636 21.9531 8.05317C22.0154 8.32512 22.0154 8.67488 21.9531 8.94683C21.8759 9.28365 21.7232 9.52403 21.6055 9.70917C21.5973 9.72209 21.5893 9.73475 21.5815 9.74715C20.9887 10.6857 19.8052 12.3518 18.0789 13.7926C16.3503 15.2353 14.0173 16.5 11.1557 16.5C8.294 16.5 5.96102 15.2353 4.23242 13.7926C2.50617 12.3518 1.32264 10.6857 0.729895 9.74715C0.722063 9.73475 0.714022 9.7221 0.705811 9.70917C0.58819 9.52403 0.435476 9.28365 0.358274 8.94683C0.29594 8.67488 0.29594 8.32512 0.358274 8.05317C0.435476 7.71635 0.58819 7.47597 0.705811 7.29083C0.714022 7.2779 0.722063 7.26525 0.729895 7.25285C1.32264 6.31429 2.50617 4.64818 4.23242 3.20743ZM11.1557 6.5C10.0511 6.5 9.15568 7.39543 9.15568 8.5C9.15568 9.60457 10.0511 10.5 11.1557 10.5C12.2602 10.5 13.1557 9.60457 13.1557 8.5C13.1557 7.39543 12.2602 6.5 11.1557 6.5ZM7.15568 8.5C7.15568 6.29086 8.94654 4.5 11.1557 4.5C13.3648 4.5 15.1557 6.29086 15.1557 8.5C15.1557 10.7091 13.3648 12.5 11.1557 12.5C8.94654 12.5 7.15568 10.7091 7.15568 8.5Z" fill="#3A4558"/>
</svg>
