<svg width="22" height="20" viewBox="0 0 22 20" fill="none" xmlns="http://www.w3.org/2000/svg">
<path fill-rule="evenodd" clip-rule="evenodd" d="M1.44858 0.292893C1.83911 -0.0976311 2.47227 -0.0976311 2.8628 0.292893L6.50153 3.93162C6.55982 3.97793 6.61365 4.03139 6.66164 4.09174L17.0527 14.4828C17.1204 14.5347 17.1824 14.5962 17.2366 14.6667L20.8628 18.2929C21.2533 18.6834 21.2533 19.3166 20.8628 19.7071C20.4723 20.0976 19.8391 20.0976 19.4486 19.7071L16.2948 16.5534C14.85 17.3988 13.1273 18 11.1557 18C8.29402 18 5.96103 16.7353 4.23244 15.2926C2.50619 13.8518 1.32265 12.1857 0.729907 11.2472C0.722074 11.2348 0.714033 11.2221 0.70582 11.2092C0.588186 11.024 0.435453 10.7836 0.358256 10.4467C0.295927 10.1748 0.295948 9.82495 0.358308 9.55299C0.435556 9.21609 0.588718 8.97508 0.70666 8.78949C0.71494 8.77646 0.723046 8.76371 0.73094 8.75121C1.33331 7.79766 2.5566 6.07525 4.35103 4.60955L1.44858 1.70711C1.05806 1.31658 1.05806 0.683418 1.44858 0.292893ZM5.77356 6.03208C4.13438 7.32619 2.98933 8.92098 2.42182 9.81936C2.38632 9.87555 2.36144 9.91499 2.34064 9.94922C2.32676 9.97207 2.31763 9.98785 2.31153 9.99883C2.31152 9.99921 2.31152 9.99959 2.31152 9.99998C2.31152 10.0004 2.31152 10.0008 2.31153 10.0012C2.31754 10.012 2.32655 10.0276 2.34018 10.05C2.36084 10.084 2.38556 10.1232 2.42091 10.1792C2.95357 11.0226 4.00767 12.4999 5.51396 13.7571C7.0179 15.0123 8.91236 16 11.1557 16C12.5086 16 13.7331 15.6414 14.8227 15.0812L13.1875 13.446C12.5921 13.7977 11.8971 14 11.1557 14C8.94655 14 7.15569 12.2091 7.15569 10C7.15569 9.25862 7.35798 8.56362 7.70966 7.96818L5.77356 6.03208ZM9.22327 9.4818C9.17916 9.64699 9.15569 9.82065 9.15569 10C9.15569 11.1046 10.0511 12 11.1557 12C11.335 12 11.5087 11.9765 11.6739 11.9324L9.22327 9.4818ZM11.1557 4C10.7738 4 10.4035 4.02849 10.0445 4.08156C9.49813 4.16234 8.98975 3.78492 8.90897 3.23858C8.8282 2.69223 9.20561 2.18385 9.75196 2.10307C10.2058 2.03597 10.6739 2 11.1557 2C14.0174 2 16.3503 3.26472 18.0789 4.70743C19.8052 6.14818 20.9887 7.81429 21.5815 8.75285C21.5893 8.76525 21.5973 8.77791 21.6056 8.79083C21.7232 8.97601 21.8759 9.21643 21.9531 9.55331C22.0155 9.82529 22.0154 10.1751 21.9531 10.4471C21.8758 10.7841 21.7224 11.0254 21.6042 11.2113C21.5959 11.2243 21.5878 11.2371 21.5799 11.2497C21.2615 11.7536 20.7785 12.4581 20.1385 13.2224C19.7839 13.6459 19.1532 13.7017 18.7298 13.3472C18.3063 12.9926 18.2505 12.3619 18.6051 11.9385C19.1764 11.2561 19.6077 10.6267 19.8891 10.1814C19.9246 10.1251 19.9496 10.0855 19.9705 10.0512C19.9845 10.0281 19.9937 10.0122 19.9999 10.0012C19.9999 10.0008 19.9999 10.0004 19.9999 10C19.9999 9.99963 19.9999 9.99922 19.9999 9.99882C19.9938 9.98799 19.9848 9.97245 19.9712 9.95C19.9505 9.91598 19.9258 9.87677 19.8905 9.8208C19.3578 8.97738 18.3037 7.50007 16.7974 6.24291C15.2935 4.9877 13.399 4 11.1557 4Z" fill="#D0D5DD"/>
</svg>
