<svg width="18" height="18" viewBox="0 0 18 18" fill="none" xmlns="http://www.w3.org/2000/svg">
<path fill-rule="evenodd" clip-rule="evenodd" d="M13.529 1.0147C12.7455 0.102902 11.4635 -0.325727 10.1862 0.285764C8.70113 0.9967 8.05169 2.70394 8.68168 4.2036C8.99859 4.958 9.85599 6.3339 10.4213 7.21511C10.4257 7.22195 10.4301 7.2288 10.4345 7.23565C10.53 7.38447 10.6262 7.53456 10.7201 7.65738C10.8264 7.79655 10.9619 7.94527 11.154 8.06521C11.4255 8.2347 11.753 8.32274 12.0726 8.31214C12.2988 8.30464 12.4902 8.24378 12.6517 8.1766C12.7942 8.1173 12.9523 8.0356 13.1092 7.95459L13.1308 7.94342C14.0596 7.46384 15.4879 6.70234 16.1384 6.20798C17.4221 5.23236 17.7476 3.42116 16.7818 2.05123C15.9689 0.89812 14.6602 0.617974 13.529 1.0147ZM12.5093 2.42437C12.1807 1.73461 11.5084 1.47165 10.8909 1.76728C10.1863 2.10462 9.90281 2.8834 10.1896 3.56611C10.4393 4.16048 11.2052 5.40377 11.7973 6.32669C11.9114 6.5045 11.971 6.59617 12.0188 6.65872C12.0196 6.65977 12.0204 6.66079 12.0211 6.66178C12.0223 6.6613 12.0235 6.66081 12.0247 6.66031C12.0973 6.63011 12.1945 6.5806 12.382 6.48383C13.3548 5.98156 14.6377 5.28903 15.1502 4.89953C15.7483 4.445 15.8888 3.6275 15.4458 2.99909C15.037 2.4192 14.3309 2.32008 13.7104 2.74723C13.5132 2.88297 13.2667 2.92536 13.0357 2.86327C12.8047 2.80118 12.6124 2.64082 12.5093 2.42437ZM2.10116 8.97139H2.80791C3.01441 8.97136 3.21551 8.97134 3.38583 8.9853C3.57286 9.00063 3.79355 9.0368 4.01562 9.15031C4.32353 9.30769 4.57386 9.55882 4.73074 9.8677C4.79536 9.99493 4.83484 10.1217 4.85966 10.242L6.16324 9.69513L6.17076 9.69173C6.18321 9.68612 6.20084 9.67823 6.22314 9.66839C6.26771 9.64871 6.33112 9.62115 6.40926 9.58832C6.56497 9.52289 6.78201 9.43536 7.02682 9.34734C7.47925 9.18467 8.15544 8.97139 8.70803 8.97139C9.10006 8.97139 9.49009 9.01822 9.87079 9.11085L11.8225 9.587C12.7172 9.80463 13.3766 10.5779 13.4221 11.503L14.6354 10.615C15.4692 10.0051 16.6329 10.0834 17.3742 10.8069C18.2081 11.6207 18.209 12.9497 17.3742 13.7635L15.609 15.4862C15.0182 16.0627 14.2674 16.4537 13.4543 16.6126L10.9591 17.0996C10.349 17.2185 9.71941 17.2043 9.11471 17.0565L6.85856 16.5065L6.85669 16.506C6.65129 16.4554 6.44005 16.43 6.2266 16.43H4.89833C4.89738 16.4441 4.89635 16.4581 4.89523 16.4719C4.87995 16.6595 4.84389 16.8809 4.73074 17.1037C4.57386 17.4126 4.32353 17.6637 4.01562 17.8211C3.79355 17.9346 3.57286 17.9708 3.38583 17.9861C3.21552 18 3.01442 18 2.80793 18H2.10116C1.89467 18 1.69358 18 1.52327 17.9861C1.33624 17.9708 1.11555 17.9346 0.893474 17.8211C0.585573 17.6637 0.335241 17.4126 0.178357 17.1037C0.0652048 16.8809 0.0291495 16.6595 0.0138685 16.4719C-4.65226e-05 16.301 -2.24313e-05 16.0993 2.04991e-06 15.8921L2.14744e-06 11.0792C-2.24313e-05 10.8721 -4.64251e-05 10.6703 0.0138685 10.4995C0.0291496 10.3119 0.0652048 10.0905 0.178357 9.8677C0.335241 9.55882 0.585574 9.30769 0.893475 9.15031C1.11555 9.0368 1.33624 9.00063 1.52327 8.9853C1.69358 8.97134 1.89467 8.97136 2.10116 8.97139ZM4.90909 14.7884H6.2266C6.5697 14.7884 6.91162 14.8293 7.24576 14.9115C7.24611 14.9116 7.24647 14.9117 7.24682 14.9118L9.50157 15.4614C9.87607 15.553 10.2672 15.5621 10.6466 15.4882M10.6466 15.4882L13.1414 15.0013C13.1414 15.0013 13.1415 15.0013 13.1414 15.0013C13.6466 14.9026 14.1085 14.6603 14.468 14.3095L16.2332 12.5869C16.4062 12.4184 16.4074 12.1535 16.2332 11.9835C16.0668 11.8212 15.7929 11.7999 15.5997 11.9412L13.5431 13.4464C13.1063 13.7668 12.5782 13.937 12.0384 13.937H10.0518C9.59995 13.937 9.2336 13.5695 9.23359 13.1162C9.23358 12.6629 9.59988 12.2954 10.0517 12.2954L11.3163 12.2954C11.5986 12.2954 11.7882 12.0782 11.7882 11.8572V11.6054C11.7882 11.4203 11.6573 11.2359 11.4369 11.1823L9.48509 10.7062C9.23054 10.6442 8.96999 10.613 8.70803 10.613C8.47123 10.613 8.03827 10.7275 7.5789 10.8927C7.36781 10.9686 7.17828 11.0449 7.04141 11.1024C6.97326 11.1311 6.91887 11.1547 6.88221 11.1709L6.84118 11.1892L6.83169 11.1935L6.83006 11.1942C6.82194 11.198 6.81363 11.2016 6.80539 11.2051L4.90909 12.0006V14.7884M3.27273 11.4732V15.866C3.27273 16.1093 3.27209 16.2425 3.2643 16.3382C3.26399 16.342 3.26368 16.3456 3.26336 16.349C3.25997 16.3493 3.25637 16.3497 3.25258 16.35C3.15719 16.3578 3.02444 16.3584 2.78182 16.3584H2.12728C1.88466 16.3584 1.75191 16.3578 1.65652 16.35C1.65273 16.3497 1.64913 16.3493 1.64573 16.349C1.64542 16.3456 1.64511 16.342 1.6448 16.3382C1.637 16.2425 1.63637 16.1093 1.63637 15.866V11.1054C1.63637 10.862 1.637 10.7289 1.6448 10.6332C1.64511 10.6294 1.64542 10.6258 1.64573 10.6224C1.64913 10.622 1.65272 10.6217 1.65652 10.6214C1.75191 10.6136 1.88466 10.613 2.12728 10.613H2.78182C3.02443 10.613 3.15719 10.6136 3.25258 10.6214C3.25637 10.6217 3.25997 10.622 3.26336 10.6224C3.26368 10.6258 3.26399 10.6294 3.2643 10.6332C3.27209 10.7289 3.27273 10.862 3.27273 11.1054V11.4358C3.27245 11.4482 3.27245 11.4607 3.27273 11.4732Z" fill="#4838AA"/>
</svg>
