<svg width="21" height="21" viewBox="0 0 21 21" fill="none" xmlns="http://www.w3.org/2000/svg">
<path fill-rule="evenodd" clip-rule="evenodd" d="M3.79998 8.5909C3.79998 3.84039 7.65622 0 12.4 0C17.1438 0 21 3.84039 21 8.5909C21 9.66177 20.8034 10.6889 20.4435 11.6368C20.4088 11.7283 20.3885 11.7818 20.3746 11.8213C20.3728 11.8263 20.3713 11.8307 20.37 11.8344C20.3701 11.8357 20.3703 11.8371 20.3704 11.8386C20.3734 11.8701 20.3786 11.9131 20.3886 11.9949L20.7743 15.143C20.7922 15.2883 20.8124 15.453 20.8172 15.5964C20.8226 15.7551 20.8159 16.0015 20.6982 16.26C20.5512 16.5829 20.29 16.8393 19.9654 16.9796C19.7054 17.0919 19.4601 17.0929 19.3023 17.0839C19.1597 17.0757 18.9963 17.0516 18.8522 17.0303C18.8433 17.029 18.8346 17.0277 18.8259 17.0264L15.7999 16.5808C15.7158 16.5684 15.6717 16.562 15.6393 16.5581C15.6377 16.5579 15.6363 16.5578 15.635 16.5576C15.6312 16.5589 15.6267 16.5604 15.6215 16.5622C15.5809 16.5764 15.5259 16.5971 15.4316 16.6326C14.4874 16.9879 13.4653 17.1818 12.4 17.1818C12.2294 17.1818 12.0599 17.1768 11.8916 17.167C10.9862 19.4089 8.83512 21 6.30002 21C5.60875 21 4.94283 20.8807 4.322 20.6605C4.2194 20.6242 4.15575 20.6016 4.10907 20.5861C4.1006 20.5833 4.09365 20.5811 4.0881 20.5793C4.08652 20.5795 4.0848 20.5796 4.08295 20.5798C4.05037 20.5835 4.00595 20.5895 3.92363 20.6008L1.07856 20.9912C0.770711 21.0335 0.461755 20.9218 0.251254 20.6921C0.0407524 20.4625 -0.0446869 20.144 0.022468 19.8391L0.603246 17.203C0.623426 17.1114 0.634225 17.0619 0.641162 17.0256C0.641555 17.0235 0.641915 17.0216 0.642243 17.0199C0.640517 17.0138 0.638331 17.0063 0.635599 16.9972C0.619956 16.9452 0.596948 16.8742 0.559548 16.7592C0.358448 16.1406 0.250014 15.48 0.250014 14.7954C0.250014 12.2887 1.70657 10.1099 3.81698 9.13497C3.8057 8.95496 3.79998 8.77355 3.79998 8.5909ZM5.70005 8.62091C5.8973 8.60107 6.09743 8.5909 6.30002 8.5909C9.6629 8.5909 12.35 11.3907 12.35 14.7954C12.35 14.9558 12.3441 15.1149 12.3323 15.2724C12.3549 15.2726 12.3774 15.2727 12.4 15.2727C13.2344 15.2727 14.031 15.121 14.7651 14.8448C14.7784 14.8398 14.792 14.8346 14.8059 14.8294C14.9401 14.7786 15.0985 14.7187 15.2432 14.6881C15.3753 14.6602 15.4883 14.6481 15.6234 14.6473C15.7707 14.6465 15.9206 14.6688 16.0417 14.6868C16.0532 14.6886 16.0645 14.6902 16.0754 14.6919L18.8549 15.1012L18.5029 12.2282C18.5015 12.2175 18.5002 12.2065 18.4988 12.1952C18.4841 12.0774 18.466 11.9315 18.4694 11.7885C18.4725 11.6573 18.4857 11.5481 18.514 11.42C18.5449 11.2798 18.6035 11.1262 18.6532 10.9959C18.6584 10.9825 18.6634 10.9693 18.6683 10.9563C18.947 10.2222 19.1 9.42545 19.1 8.5909C19.1 4.90653 16.1062 1.90909 12.4 1.90909C8.6938 1.90909 5.69998 4.90653 5.69998 8.5909C5.69998 8.60091 5.70001 8.61091 5.70005 8.62091ZM10.3178 15.8772C10.4041 15.5323 10.45 15.1699 10.45 14.7954C10.45 12.4012 8.57045 10.5 6.30002 10.5C4.02959 10.5 2.15002 12.4012 2.15002 14.7954C2.15002 15.2766 2.22611 15.7372 2.36562 16.1664C2.37116 16.1834 2.37683 16.2007 2.38259 16.2183C2.43602 16.3817 2.49658 16.5669 2.5209 16.7226C2.54373 16.8687 2.54921 16.9811 2.54071 17.1288C2.53169 17.2855 2.49585 17.4467 2.46664 17.5781C2.4638 17.5909 2.46102 17.6034 2.45834 17.6156L2.17221 18.9143L3.66653 18.7093C3.67748 18.7078 3.68871 18.7062 3.7002 18.7046C3.81836 18.6882 3.96326 18.6681 4.10225 18.669C4.23386 18.6699 4.33179 18.68 4.46086 18.7058C4.59777 18.7332 4.76199 18.7918 4.90772 18.8437C4.9235 18.8493 4.93906 18.8549 4.95435 18.8603C5.37533 19.0096 5.82759 19.0909 6.30002 19.0909C8.19963 19.0909 9.82562 17.76 10.3061 15.923C10.3096 15.9076 10.3135 15.8923 10.3178 15.8772Z" fill="#8892A6"/>
</svg>
