<svg width="56" height="78" viewBox="0 0 56 78" fill="none" xmlns="http://www.w3.org/2000/svg">
<path fill-rule="evenodd" clip-rule="evenodd" d="M28 3C18.1417 3 10.15 11.0589 10.15 21L10.15 33.8571C5.92502 33.8571 2.5 37.3109 2.5 41.5714V67.2857C2.5 71.5462 5.92502 75 10.15 75H45.85C50.075 75 53.5 71.5462 53.5 67.2857V41.5714C53.5 37.3109 50.075 33.8571 45.85 33.8571V21C45.85 11.0589 37.8583 3 28 3ZM38.2 33.8571V21C38.2 15.3194 33.6333 10.7143 28 10.7143C22.3667 10.7143 17.8 15.3194 17.8 21V33.8571H38.2Z" stroke="#F04438" stroke-width="4.5"/>
</svg>
