<svg width="17" height="17" viewBox="0 0 17 17" fill="none" xmlns="http://www.w3.org/2000/svg">
<path fill-rule="evenodd" clip-rule="evenodd" d="M4.79892 3.61413e-07L5.83333 7.19041e-07C6.29357 7.19041e-07 6.66667 0.373097 6.66667 0.833334C6.66667 1.29357 6.29357 1.66667 5.83333 1.66667H4.83333C4.11952 1.66667 3.63427 1.66732 3.2592 1.69796C2.89385 1.72781 2.70702 1.78192 2.57668 1.84832C2.26308 2.00811 2.00811 2.26308 1.84832 2.57668C1.78192 2.70702 1.72781 2.89385 1.69796 3.2592C1.66732 3.63427 1.66667 4.11952 1.66667 4.83333V11.8333C1.66667 12.5472 1.66732 13.0324 1.69796 13.4075C1.72781 13.7728 1.78192 13.9597 1.84832 14.09C2.00811 14.4036 2.26308 14.6586 2.57668 14.8183C2.70702 14.8848 2.89385 14.9389 3.2592 14.9687C3.63427 14.9994 4.11952 15 4.83333 15H5.83333C6.29357 15 6.66667 15.3731 6.66667 15.8333C6.66667 16.2936 6.29357 16.6667 5.83333 16.6667H4.7989C4.1281 16.6667 3.57447 16.6667 3.12348 16.6298C2.65506 16.5916 2.22448 16.5094 1.82003 16.3034C1.19283 15.9838 0.68289 15.4738 0.363313 14.8466C0.157237 14.4422 0.0750998 14.0116 0.0368288 13.5432C-1.90698e-05 13.0922 -1.03078e-05 12.5386 3.61413e-07 11.8677V4.79892C-1.03078e-05 4.12811 -1.90698e-05 3.57447 0.0368289 3.12348C0.0750999 2.65506 0.157237 2.22448 0.363313 1.82003C0.682891 1.19282 1.19283 0.68289 1.82003 0.363312C2.22448 0.157237 2.65507 0.0750997 3.12348 0.0368288C3.57448 -1.90698e-05 4.12811 -1.03078e-05 4.79892 3.61413e-07ZM11.0774 3.57741C11.4029 3.25197 11.9305 3.25197 12.2559 3.57741L16.4226 7.74408C16.748 8.06952 16.748 8.59715 16.4226 8.92259L12.2559 13.0893C11.9305 13.4147 11.4029 13.4147 11.0774 13.0893C10.752 12.7638 10.752 12.2362 11.0774 11.9107L13.8215 9.16667H5.83333C5.3731 9.16667 5 8.79357 5 8.33333C5 7.8731 5.3731 7.5 5.83333 7.5H13.8215L11.0774 4.75592C10.752 4.43049 10.752 3.90285 11.0774 3.57741Z" fill="#067B43"/>
</svg>
