<svg width="21" height="15" viewBox="0 0 21 15" fill="none" xmlns="http://www.w3.org/2000/svg">
<path fill-rule="evenodd" clip-rule="evenodd" d="M0 1.07143C0 0.479695 0.470101 0 1.05 0H19.95C20.5299 0 21 0.479695 21 1.07143C21 1.66316 20.5299 2.14286 19.95 2.14286H1.05C0.470101 2.14286 0 1.66316 0 1.07143ZM0 7.5C0 6.90827 0.470101 6.42857 1.05 6.42857H19.95C20.5299 6.42857 21 6.90827 21 7.5C21 8.09173 20.5299 8.57143 19.95 8.57143H1.05C0.470101 8.57143 0 8.09173 0 7.5ZM0 13.9286C0 13.3368 0.470101 12.8571 1.05 12.8571H13.65C14.2299 12.8571 14.7 13.3368 14.7 13.9286C14.7 14.5203 14.2299 15 13.65 15H1.05C0.470101 15 0 14.5203 0 13.9286Z" fill="#3A4558"/>
</svg>
