<svg width="27" height="13" viewBox="0 0 27 13" fill="none" xmlns="http://www.w3.org/2000/svg">
<path d="M1 1.00245C1.15603 1.00245 1.30265 0.994937 1.4474 1.00621C1.49627 1.00997 1.55643 1.04945 1.58838 1.09268C2.75951 2.66967 3.92688 4.24854 5.09613 5.82742C6.52856 7.76342 7.96098 9.69942 9.39528 11.6335C9.41408 11.658 9.43288 11.6805 9.47048 11.7294V1.01373H10.0137V12.6711C9.84832 12.6711 9.6829 12.6786 9.51935 12.6654C9.478 12.6617 9.43288 12.6034 9.40092 12.5621C8.22228 10.9719 7.04551 9.38176 5.86686 7.78973C4.45511 5.88193 3.04337 3.976 1.63162 2.06819C1.60718 2.03624 1.58274 2.00617 1.53011 1.94038V12.6636H1.00188V1.00245H1Z" fill="#067B43" stroke="#067B43" stroke-width="0.2"/>
<path d="M25.9695 1.54201H17.6401V1.01196H26.6557C26.6369 1.26383 26.6989 1.50066 26.5091 1.74125C23.8059 5.16027 21.1158 8.58868 18.4221 12.0152C18.3976 12.0453 18.3751 12.0772 18.3337 12.1374H26.6482V12.6618H17.6325C17.6325 12.4945 17.6269 12.3291 17.6363 12.1656C17.6382 12.1223 17.6777 12.0754 17.7077 12.0378C20.4222 8.59056 23.1385 5.14335 25.8549 1.69426C25.885 1.65479 25.915 1.61532 25.9695 1.54201Z" fill="#067B43" stroke="#067B43" stroke-width="0.2"/>
<path d="M13.7622 1.0083H14.2641V12.6619H13.7622V1.0083Z" fill="#067B43" stroke="#067B43" stroke-width="0.2"/>
</svg>
