<svg width="18" height="18" viewBox="0 0 18 18" fill="none" xmlns="http://www.w3.org/2000/svg">
<path fill-rule="evenodd" clip-rule="evenodd" d="M9 1.63636C4.93318 1.63636 1.63636 4.93318 1.63636 9C1.63636 13.0668 4.93318 16.3636 9 16.3636C13.0668 16.3636 16.3636 13.0668 16.3636 9C16.3636 4.93318 13.0668 1.63636 9 1.63636ZM0 9C0 4.02944 4.02944 0 9 0C13.9706 0 18 4.02944 18 9C18 13.9706 13.9706 18 9 18C4.02944 18 0 13.9706 0 9ZM5.31818 6.54545C5.31818 5.86765 5.86765 5.31818 6.54545 5.31818C7.22326 5.31818 7.77273 5.86765 7.77273 6.54545C7.77273 7.22326 7.22326 7.77273 6.54545 7.77273C5.86765 7.77273 5.31818 7.22326 5.31818 6.54545ZM10.2273 6.54545C10.2273 5.86765 10.7767 5.31818 11.4545 5.31818C12.1323 5.31818 12.6818 5.86765 12.6818 6.54545C12.6818 7.22326 12.1323 7.77273 11.4545 7.77273C10.7767 7.77273 10.2273 7.22326 10.2273 6.54545ZM6.11536 10.7929C6.76822 10.318 7.75184 9.81818 9 9.81818C10.2482 9.81818 11.2318 10.318 11.8846 10.7929C12.2126 11.0314 12.4662 11.2699 12.6397 11.4509C12.7268 11.5418 12.7947 11.6193 12.8427 11.6764C12.8667 11.705 12.8858 11.7287 12.8999 11.7465L12.9174 11.7688L12.9233 11.7765L12.9255 11.7795L12.9264 11.7807C12.9266 11.781 12.9273 11.7818 12.2727 12.2727L12.9273 11.7818C13.1984 12.1433 13.1251 12.6562 12.7636 12.9273C12.4033 13.1975 11.8925 13.1256 11.6208 12.767L11.617 12.7622C11.6121 12.756 11.6028 12.7445 11.5893 12.7284C11.5622 12.6961 11.5182 12.6457 11.4583 12.5831C11.3378 12.4574 11.1567 12.2868 10.9222 12.1162C10.45 11.7729 9.79729 11.4545 9 11.4545C8.20271 11.4545 7.54996 11.7729 7.07782 12.1162C6.84333 12.2868 6.66223 12.4574 6.54171 12.5831C6.48179 12.6457 6.43783 12.6961 6.41071 12.7284C6.39717 12.7445 6.38792 12.756 6.38305 12.7622L6.3796 12.7666L6.3805 12.7654L6.3811 12.7646M6.3811 12.7646C6.38037 12.7656 6.38034 12.7656 6.3796 12.7666C6.10782 13.1251 5.59672 13.1975 5.23636 12.9273C4.87487 12.6562 4.80161 12.1433 5.07273 11.7818L5.72727 12.2727C5.07273 11.7818 5.07253 11.7821 5.07273 11.7818L5.0745 11.7795L5.07674 11.7765L5.08264 11.7688L5.10006 11.7465C5.11417 11.7287 5.13328 11.705 5.1573 11.6764C5.20528 11.6193 5.27318 11.5418 5.36028 11.4509C5.53379 11.2699 5.78735 11.0314 6.11536 10.7929" fill="#4838AA"/>
</svg>
