<svg width="13" height="13" viewBox="0 0 13 13" fill="none" xmlns="http://www.w3.org/2000/svg">
<path fill-rule="evenodd" clip-rule="evenodd" d="M3.74316 2.80396e-07H9.25685C9.78008 -8.01064e-06 10.2119 -1.48943e-05 10.5637 0.0287264C10.9291 0.0585779 11.2649 0.122644 11.5804 0.283384C12.0696 0.532655 12.4673 0.930402 12.7166 1.41963C12.8774 1.73509 12.9414 2.07095 12.9713 2.43631C13 2.78809 13 3.21991 13 3.74314V9.25686C13 9.78009 13 10.2119 12.9713 10.5637C12.9414 10.9291 12.8774 11.2649 12.7166 11.5804C12.4673 12.0696 12.0696 12.4673 11.5804 12.7166C11.2649 12.8774 10.929 12.9414 10.5637 12.9713C10.2119 13 9.78008 13 9.25686 13H3.74314C3.21992 13 2.78809 13 2.43631 12.9713C2.07095 12.9414 1.73509 12.8774 1.41963 12.7166C0.930403 12.4673 0.532654 12.0696 0.283383 11.5804C0.122644 11.2649 0.0585773 10.9291 0.0287259 10.5637C-1.53955e-05 10.2119 -8.0102e-06 9.78008 2.80822e-07 9.25684V3.74316C-8.0102e-06 3.21992 -1.53955e-05 2.78809 0.0287259 2.43631C0.0585773 2.07095 0.122644 1.73509 0.283383 1.41963C0.532655 0.930402 0.930403 0.532655 1.41963 0.283384C1.73509 0.122644 2.07095 0.0585779 2.43631 0.0287264C2.78809 -1.48943e-05 3.21992 -8.01064e-06 3.74316 2.80396e-07Z" fill="#ECE8FF"/>
</svg>
